<?xml version="1.0" encoding="UTF-8" standalone="no"?>
<!-- Created with Inkscape (http://www.inkscape.org/) -->

<svg
   xmlns:dc="http://purl.org/dc/elements/1.1/"
   xmlns:cc="http://creativecommons.org/ns#"
   xmlns:rdf="http://www.w3.org/1999/02/22-rdf-syntax-ns#"
   xmlns:svg="http://www.w3.org/2000/svg"
   xmlns="http://www.w3.org/2000/svg"
   xmlns:sodipodi="http://sodipodi.sourceforge.net/DTD/sodipodi-0.dtd"
   xmlns:inkscape="http://www.inkscape.org/namespaces/inkscape"
   width="744.09448819"
   height="1052.3622047"
   id="svg5583"
   version="1.1"
   inkscape:version="0.48.4 r9939"
   sodipodi:docname="New document 46">
  <defs
     id="defs5585" />
  <sodipodi:namedview
     id="base"
     pagecolor="#ffffff"
     bordercolor="#666666"
     borderopacity="1.0"
     inkscape:pageopacity="0.0"
     inkscape:pageshadow="2"
     inkscape:zoom="0.2188614"
     inkscape:cx="-281.08134"
     inkscape:cy="727.50465"
     inkscape:document-units="px"
     inkscape:current-layer="layer1"
     showgrid="false"
     inkscape:window-width="1280"
     inkscape:window-height="749"
     inkscape:window-x="0"
     inkscape:window-y="26"
     inkscape:window-maximized="1" />
  <metadata
     id="metadata5588">
    <rdf:RDF>
      <cc:Work
         rdf:about="">
        <dc:format>image/svg+xml</dc:format>
        <dc:type
           rdf:resource="http://purl.org/dc/dcmitype/StillImage" />
        <dc:title></dc:title>
      </cc:Work>
    </rdf:RDF>
  </metadata>
  <g
     inkscape:label="Layer 1"
     inkscape:groupmode="layer"
     id="layer1">
    <g
       id="g5958"
       transform="translate(795.02368,0)">
      <path
         id="path5861"
         d="m -281.1875,362.03125 -66.21875,0.625 -16.53125,0 0,54.96875 3.28125,2.78125 80.90625,68.9375 99.15625,84.40625 c -12.04192,19.35466 -20.51081,33.01589 -31.1875,50 -5.07082,-3.39293 -10.08403,-6.50957 -15,-9.34375 -4.91597,-2.83418 -9.72569,-5.39803 -14.46875,-7.71875 -4.74306,-2.32072 -9.41668,-4.39746 -13.96875,-6.25 -4.55207,-1.85254 -9.00072,-3.47662 -13.34375,-4.90625 -4.34303,-1.42963 -8.57159,-2.66674 -12.6875,-3.71875 -4.11591,-1.05201 -8.12927,-1.90533 -12,-2.625 -3.87073,-0.71967 -7.61127,-1.28614 -11.21875,-1.71875 -3.60748,-0.43261 -7.08008,-0.74667 -10.40625,-0.9375 -3.32617,-0.19083 -6.50446,-0.25567 -9.53125,-0.25 -3.02679,0.006 -5.8844,0.0931 -8.59375,0.25 -5.41869,0.31377 -10.17824,0.8843 -14.21875,1.53125 -4.04051,0.64695 -7.3572,1.38211 -9.875,2 -2.5178,0.61789 -4.2432,1.11716 -5.09375,1.34375 -0.95391,0.25412 -1.85069,0.74345 -2.6875,1.4375 -0.83681,0.69405 -1.62192,1.59749 -2.3125,2.625 -0.69058,1.02751 -1.29727,2.18299 -1.8125,3.4375 -0.51523,1.25451 -0.93926,2.5937 -1.25,3.96875 -0.31074,1.37505 -0.51661,2.79838 -0.59375,4.1875 -0.0771,1.38912 -0.0294,2.76577 0.15625,4.0625 0.1856,1.29673 0.52254,2.49587 1,3.59375 0.47746,1.09788 1.1078,2.08243 1.90625,2.875 0.9846,0.97735 2.51762,1.96607 4.53125,3 2.01363,1.03393 4.4941,2.11408 7.40625,3.21875 5.8243,2.20934 13.3334,4.57905 21.96875,7.15625 8.63535,2.5772 18.41016,5.34799 28.8125,8.40625 10.40234,3.05826 21.43722,6.40997 32.5625,10.0625 5.56264,1.82627 11.13988,3.72269 16.6875,5.71875 5.54762,1.99606 11.06666,4.06999 16.46875,6.25 5.40209,2.18001 10.68645,4.46564 15.8125,6.84375 5.12605,2.37811 10.09299,4.84714 14.8125,7.4375 4.34779,2.38634 8.41613,4.92199 12.3125,7.5 0.11907,-8.72132 0.75,-53.3125 0.75,-53.3125 l 43.5625,35.875 35.90625,-37.15625 -64.375,-54.8125 c 12.77893,-20.52083 23.59375,-37.9375 23.59375,-37.9375 0,0 -41.83232,-35.69398 -106.28125,-45.1875 -4.09448,-0.83637 -8.05052,-1.54681 -11.9375,-2.15625 l 0,-125.84375 -6,0 c -0.005,-0.21151 0.005,-0.41551 0,-0.625 z M -363.9375,417.625 -418.65625,371 -716,627.3125 l 35.90625,41 57.65625,-42.28125 3.84375,374.24995 c 83.32283,0.2808 166.6458,0.5412 249.96875,0.7813 l 0,-91.5 c 58.08028,6.49653 74.72842,2.68538 105,-2.09375 0,0 1.19172,-0.27545 3.28125,-0.8125 l 5.09375,94.71875 c 18.15626,0.052 36.31249,0.1034 54.46875,0.1562 0.62722,-44.60308 0.93796,-67.90129 1.6875,-122.24995 12.50963,-8.73768 24.04533,-19.80218 31.5,-33.65625 36.4438,-67.7422 4.15687,-124.80118 0,-133.125 -5.5101,-11.03352 -15.74462,-20.75419 -28.78125,-29.375 -0.59525,43.57186 -1.47653,106.28545 -2.71875,196.125 -0.62829,0.43891 -1.24212,0.91664 -1.875,1.34375 -2.64623,1.78586 -5.34014,3.47797 -8.03125,5.0625 -5.38222,3.16905 -10.78082,5.93325 -16,8.34375 -5.21918,2.4105 -10.2443,4.47318 -14.84375,6.1875 -4.59945,1.71432 -8.7895,3.07574 -12.3125,4.15625 -5.02822,1.54216 -6.48113,1.8135 -8.1875,2.21875 l -3.4375,-63.84375 -104.84375,0 0,66.78125 c -3.14333,-0.35004 -5.88492,-0.61903 -9.28125,-1.03125 0,0 -4.91398,-1.06407 -12.9375,-3.15625 -4.01176,-1.04609 -8.80836,-2.35346 -14.15625,-3.90625 -5.34789,-1.55279 -11.23122,-3.35766 -17.46875,-5.40625 -6.23753,-2.04859 -12.81933,-4.3415 -19.5,-6.875 -6.68067,-2.5335 -13.47893,-5.305 -20.15625,-8.3125 -6.67732,-3.0075 -13.24128,-6.24814 -19.46875,-9.71875 -3.11373,-1.73531 -6.14495,-3.52596 -9.0625,-5.375 -2.91755,-1.84904 -5.70944,-3.75734 -8.375,-5.71875 9.99616,-16.0949 24.31935,-38.39873 36.15625,-56.6875 11.8369,-18.28877 21.1875,-32.5625 21.1875,-32.5625 0,0 1.39593,1.07746 4,2.875 2.60407,1.79754 6.41246,4.3232 11.21875,7.25 4.80629,2.9268 10.61208,6.23721 17.21875,9.625 3.30333,1.69389 6.82192,3.40991 10.5,5.09375 3.67808,1.68384 7.52865,3.34725 11.53125,4.9375 4.0026,1.59025 8.12937,3.11812 12.40625,4.53125 4.27688,1.41313 8.68657,2.69128 13.1875,3.84375 4.50093,1.15247 9.10649,2.16047 13.78125,2.96875 4.67476,0.80828 9.4204,1.43195 14.21875,1.8125 4.79835,0.38055 9.65954,0.53696 14.53125,0.40625 3.65378,-0.098 7.3314,-0.34951 11,-0.78125 1.22287,-0.14391 2.43254,-0.31862 3.65625,-0.5 2.44742,-0.36275 4.89997,-0.78539 7.34375,-1.3125 2.44378,-0.52711 4.87863,-1.14184 7.3125,-1.84375 2.43387,-0.70191 4.86358,-1.51909 7.28125,-2.40625 2.41767,-0.88716 4.82355,-1.85465 7.21875,-2.9375 0.98798,-0.44632 1.9457,-1.21526 2.84375,-2.21875 0.89805,-1.00349 1.73432,-2.23402 2.4375,-3.65625 0.70318,-1.42223 1.28413,-3.01621 1.6875,-4.71875 0.40337,-1.70254 0.6264,-3.53059 0.625,-5.375 -0.001,-1.84441 -0.2389,-3.71465 -0.75,-5.5625 -0.5111,-1.84785 -1.28049,-3.66213 -2.40625,-5.375 -0.56288,-0.85643 -1.23253,-1.70327 -1.96875,-2.5 -0.73622,-0.79673 -1.54607,-1.53028 -2.46875,-2.25 -0.92268,-0.71972 -1.94025,-1.40584 -3.0625,-2.03125 -1.12225,-0.62541 -2.35255,-1.20495 -3.6875,-1.71875 -7.57017,-2.91318 -15.55801,-5.67252 -23.84375,-8.375 -8.28574,-2.70248 -16.86861,-5.35888 -25.59375,-8.0625 -8.72514,-2.70362 -17.61161,-5.45842 -26.5,-8.375 -8.88839,-2.91658 -17.78702,-5.97113 -26.5625,-9.3125 -4.38774,-1.67069 -8.75476,-3.4334 -13.0625,-5.25 -4.30774,-1.8166 -8.55679,-3.6985 -12.75,-5.6875 -2.87859,-1.36542 -5.6891,-2.82406 -8.5,-4.28125 -0.15914,-20.05982 -0.34375,-45.125 -0.34375,-45.125 L -477,672.25 c -0.49627,-0.6997 -1.00057,-1.39339 -1.5,-2.09375 -0.49943,-0.70036 -0.99397,-1.40739 -1.4375,-2.125 -1.49887,-2.42514 -2.82345,-4.88955 -4.03125,-7.40625 -1.2078,-2.5167 -2.28927,-5.09267 -3.21875,-7.6875 -0.49049,-1.36931 -0.83723,-2.76756 -1.25,-4.15625 -0.007,-0.0219 -0.0247,-0.0406 -0.0313,-0.0625 l -1.84375,-46.28125 c -2.86602,15.76603 -2.67133,31.71594 1.84375,46.625 0.007,0.0219 0.0246,0.0406 0.0313,0.0625 l 0.375,9.53125 -62.125,-0.46875 -1.78125,-69.3125 61,-2.96875 0.65625,16.4375 c 0.41515,-2.28164 0.86325,-4.57412 1.40625,-6.84375 0.66165,-2.76553 1.41207,-5.51382 2.25,-8.25 0.83793,-2.73618 1.77978,-5.46286 2.78125,-8.15625 2.00294,-5.38677 4.29445,-10.64625 6.875,-15.78125 2.58055,-5.135 5.44386,-10.13051 8.5,-14.90625 1.19549,-1.86816 2.49765,-3.70433 3.875,-5.5 1.37735,-1.79567 2.83531,-3.5616 4.375,-5.28125 3.07938,-3.4393 6.45084,-6.69848 10.0625,-9.8125 3.61166,-3.11402 7.44965,-6.08325 11.4375,-8.84375 3.98785,-2.7605 8.13581,-5.34003 12.34375,-7.71875 4.20794,-2.37872 8.47808,-4.53131 12.75,-6.5 4.27192,-1.96869 8.53895,-3.75084 12.71875,-5.28125 4.1798,-1.53041 8.28717,-2.81112 12.21875,-3.875 3.93158,-1.06388 7.69149,-1.89965 11.21875,-2.46875 4.7479,-0.76605 9.2064,-1.47181 13.5625,-2.125 l 0,-73.375 z m -56,166.03125 -40.03125,0.75 -23.15625,1.125 4.46875,73.1875 c 12.39041,-0.0923 59.34375,-0.5 59.34375,-0.5 0,0 -0.42505,-49.70827 -0.625,-74.5625 z m -129.9375,87.4375 62.3125,0.96875 2.78125,69.34375 -63.3125,0 -1.78125,-70.3125 z m 72.0625,1.125 0.6875,0.0313 c 0.69218,0.977 1.41158,1.94784 2.15625,2.90625 14.78037,19.02284 34.36335,33.15762 56.125,44.4375 0.0768,9.67954 0.1288,14.54164 0.1875,21.8125 l -54.90625,0 -4.25,-69.1875 z"
         style="color:#F0A202;fill:#F0A202;fill-rule:evenodd"
         inkscape:connector-curvature="0" />
      <g
         style="fill:#000000"
         id="g5944">
        <path
           id="path5713"
           d="m -309.14086,315.83827 c -2.48404,0.216 -6.26736,2.21631 -7.93596,4.82378 -2.13279,3.33286 -3.08074,7.8176 -0.56464,11.05591 3.88174,4.99594 11.5471,6.144 16.8301,8.17701 1.86326,0.71714 1.27789,2.77694 0.5884,3.08842 -6.68616,3.02274 -14.51585,-2.92685 -14.51585,-2.92685 0,0 -3.25862,4.97758 -5.00263,7.78563 3.72043,2.73762 10.56731,4.22935 10.56731,4.22935 l 0,8.01155 9.99965,0 -0.0303,-8.10056 c 0,0 6.19194,-1.3336 8.37702,-5.39445 3.17914,-5.90942 0.36263,-10.88623 0,-11.61234 -2.49596,-4.99797 -16.08901,-6.91392 -17.46326,-8.27805 -0.55721,-0.55311 -0.17813,-2.10846 0.48757,-2.2858 0.59357,-0.15814 6.04248,-1.91336 13.12003,2.82229 1.63731,-2.60456 4.78231,-7.66897 4.78231,-7.66897 0,0 -3.65131,-3.11477 -9.27344,-3.94292 0,-2.16003 0,-8.42759 0,-8.42759 l -9.99922,0 c 0,-5e-4 -7.6e-4,6.15955 0.0329,8.64359 z"
           inkscape:connector-curvature="0"
           sodipodi:nodetypes="csscccccccccssscccccc"
           style="fill:#23001E" />
        <path
           style="fill:#F0A202"
           sodipodi:nodetypes="csscccccccccssscccccc"
           inkscape:connector-curvature="0"
           d="m -345.39857,349.75994 c -1.93217,0.8696 -4.40646,3.5348 -5.01411,6.09427 -0.77669,3.27151 -0.28,7.13495 2.6462,9.02744 4.51441,2.91968 10.98546,1.69193 15.79343,1.84192 1.69575,0.053 1.80356,1.86947 1.33776,2.31262 -4.51638,4.29912 -12.46521,1.72109 -12.46521,1.72109 0,0 -1.2188,4.90651 -1.83071,7.64803 3.75197,1.15325 9.66276,0.43064 9.66276,0.43064 l 2.24577,6.42694 8.02182,-2.80308 -2.29503,-6.48985 c 0,0 4.59341,-2.80554 5.20797,-6.6757 0.89383,-5.63177 -2.76069,-8.8347 -3.25514,-9.31554 -3.4033,-3.30977 -14.84485,-1.03639 -16.32968,-1.74548 -0.60205,-0.28752 -0.73394,-1.6415 -0.24961,-1.97037 0.43184,-0.29325 4.31098,-3.22873 11.31615,-1.4137 0.58337,-2.54837 1.68667,-7.49269 1.68667,-7.49269 0,0 -3.80224,-1.47517 -8.54451,-0.56354 -0.6055,-1.7328 -2.3624,-6.7607 -2.3624,-6.7607 l -8.02148,2.80295 c -1.4e-4,-4e-4 1.72603,4.94147 2.44935,6.92475 z"
           id="path5903" />
        <path
           id="path5905"
           d="m -344.80468,293.78475 c -2.09749,0.91305 -4.80416,3.75737 -5.49425,6.51241 -0.88205,3.52147 -0.3973,7.69894 2.73653,9.78098 4.83473,3.21213 11.83703,1.97287 17.02558,2.19883 1.82996,0.0798 1.92217,2.04225 1.4134,2.51445 -4.93301,4.58105 -13.47999,1.69202 -13.47999,1.69202 0,0 -1.38112,5.28069 -2.07823,8.2322 4.03514,1.29498 10.42588,0.5936 10.42588,0.5936 l 2.33886,6.96823 8.69745,-2.91928 -2.3912,-7.0368 c 0,0 4.99627,-2.96761 5.71127,-7.13752 1.03996,-6.06799 -2.86269,-9.57444 -3.39008,-10.10013 -3.63002,-3.61846 -16.01225,-1.31656 -17.60578,-2.10186 -0.64613,-0.31841 -0.77047,-1.78189 -0.24322,-2.13047 0.4701,-0.31084 4.697,-3.42822 12.23539,-1.37547 0.66373,-2.74337 1.92068,-8.06642 1.92068,-8.06642 0,0 -4.08515,-1.64319 -9.21689,-0.72218 -0.63061,-1.87875 -2.46033,-7.33011 -2.46033,-7.33011 l -8.69708,2.91915 c -1.4e-4,-4.3e-4 1.79755,5.35764 2.55201,7.50837 z"
           inkscape:connector-curvature="0"
           sodipodi:nodetypes="csscccccccccssscccccc"
           style="fill:#23001E" />
        <path
           style="fill:#58FCEC"
           sodipodi:nodetypes="csscccccccccssscccccc"
           inkscape:connector-curvature="0"
           d="m -333.93115,208.55 c -3.66167,0.39312 -9.18869,3.45993 -11.57482,7.36016 -3.04991,4.98525 -4.31583,11.63609 -0.50364,16.34288 5.88124,7.2615 17.2348,8.72792 25.09684,11.57227 2.77281,1.00336 1.96994,4.06251 0.9611,4.54303 -9.78307,4.66329 -21.52267,-3.88855 -21.52267,-3.88855 0,0 -4.66331,7.44759 -7.15478,11.64626 5.57561,3.93148 15.7308,5.92986 15.7308,5.92986 l 0.23921,11.83046 14.7663,-0.2986 -0.28662,-11.961 c 0,0 9.1037,-2.15422 12.20907,-8.21602 4.51812,-8.82127 0.21042,-16.08629 -0.34675,-17.1477 -3.83497,-7.3059 -23.96477,-9.72922 -26.03482,-11.70258 -0.83936,-0.80013 -0.326,-3.10821 0.65175,-3.38994 0.87179,-0.25127 8.86564,-3.00586 19.45833,3.77584 2.34001,-3.89498 6.83294,-11.46743 6.83294,-11.46743 0,0 -5.48484,-4.49048 -13.81163,-5.5455 -0.0646,-3.18969 -0.25165,-12.44485 -0.25165,-12.44485 l -14.76566,0.29858 c -1e-5,-7.2e-4 0.18282,9.0957 0.3067,12.76283 z"
           id="path5926" />
        <path
           id="path5928"
           d="m -372.10906,132.83029 c -4.53364,-0.67261 -12.15104,1.29142 -16.24602,5.24248 -5.23416,5.05023 -8.84078,12.66511 -5.72217,19.52783 4.8112,10.5876 18.02789,15.90774 26.60764,21.79475 3.02586,2.07649 1.10124,5.51002 -0.26435,5.77305 -13.24366,2.55486 -24.70753,-11.42073 -24.70753,-11.42073 0,0 -7.94827,7.51118 -12.26355,11.78875 5.48539,6.48081 17.0921,12.0666 17.0921,12.0666 l -3.41493,14.32502 17.87991,4.26235 3.39869,-14.49709 c 0,0 11.63996,0.25473 17.27789,-6.07486 8.20337,-9.21127 5.28864,-19.31056 4.94975,-20.76345 -2.33251,-10.00056 -25.82091,-19.22038 -27.69667,-22.2453 -0.76058,-1.22651 0.58023,-3.84597 1.84614,-3.87927 1.12875,-0.0298 11.6198,-0.84562 22.25625,10.63878 4.03778,-3.95917 11.81991,-11.67408 11.81991,-11.67408 0,0 -5.20107,-7.12572 -14.9007,-11.00291 0.92059,-3.8623 3.59226,-15.06895 3.59226,-15.06895 l -17.87914,-4.26217 c 2.1e-4,-8.7e-4 -2.62684,11.01326 -3.62548,15.4692 z"
           inkscape:connector-curvature="0"
           sodipodi:nodetypes="csscccccccccssscccccc"
           style="fill:#23001E" />
        <path
           style="fill:#23001E"
           sodipodi:nodetypes="csscccccccccssscccccc"
           inkscape:connector-curvature="0"
           d="m -387.37815,256.65664 c -2.52515,1.12606 -5.76575,4.59277 -6.57012,7.92988 -1.02812,4.26547 -0.39729,9.30903 3.41258,11.7916 5.87772,3.83007 14.32719,2.25695 20.60038,2.47418 2.21249,0.0768 2.34507,2.44753 1.73527,3.02369 -5.91261,5.58966 -16.27338,2.19004 -16.27338,2.19004 0,0 -1.61234,6.39698 -2.42308,9.97161 4.89071,1.52164 12.60685,0.60518 12.60685,0.60518 l 2.90169,8.39646 10.48012,-3.62179 -2.96569,-8.47877 c 0,0 6.00641,-3.64036 6.82566,-8.68771 1.19155,-7.34483 -3.56284,-11.54062 -4.20588,-12.17027 -4.42612,-4.33411 -19.3662,-1.41882 -21.30055,-2.35076 -0.78433,-0.37786 -0.95035,-2.14525 -0.31688,-2.57221 0.5648,-0.38075 5.63977,-4.19383 14.77259,-1.79407 0.77263,-3.32271 2.23444,-9.76956 2.23444,-9.76956 0,0 -4.95489,-1.94194 -11.14707,-0.7736 -0.78242,-2.2638 -3.0524,-8.8325 -3.0524,-8.8325 l -10.47966,3.62164 c -1.7e-4,-5.1e-4 2.23015,6.45575 3.16513,9.04696 z"
           id="path5930" />
        <path
           id="path5932"
           d="m -446.00375,196.80358 c -3.66548,1.66196 -8.35123,6.73745 -9.49193,11.60228 -1.45799,6.21819 -0.49408,13.554 5.07402,17.13323 8.59033,5.522 20.87532,3.15576 30.00866,3.41526 3.22123,0.0918 3.43565,3.54147 2.55322,4.38564 -8.55596,8.18987 -23.66803,3.33496 -23.66803,3.33496 0,0 -2.28913,9.32614 -3.43696,14.53678 7.13279,2.17072 18.35625,0.76697 18.35625,0.76697 l 4.29966,12.1958 15.22231,-5.36668 -4.39353,-12.31504 c 0,0 8.71012,-5.35328 9.85701,-12.70771 1.66806,-10.70203 -5.29046,-16.76654 -6.23216,-17.67726 -6.48193,-6.26879 -28.20264,-1.8902 -31.02674,-3.22927 -1.1451,-0.54292 -1.40274,-3.11406 -0.48451,-3.74129 0.8187,-0.55933 8.17145,-6.15559 21.48705,-2.74501 1.09462,-4.84358 3.16419,-14.24096 3.16419,-14.24096 0,0 -7.23,-2.78193 -16.2329,-1.0253 -1.15937,-3.28815 -4.52297,-12.82917 -4.52297,-12.82917 l -15.22165,5.36646 c -2.4e-4,-7.4e-4 3.30461,9.37696 4.68901,13.14031 z"
           inkscape:connector-curvature="0"
           sodipodi:nodetypes="csscccccccccssscccccc"
           style="fill:#23001E" />
        <path
           style="fill:#23001E"
           sodipodi:nodetypes="csscccccccccssscccccc"
           inkscape:connector-curvature="0"
           d="m -418.64268,100.11035 c -2.08137,0.23175 -5.2175,1.98805 -6.56568,4.21128 -1.72321,2.84172 -2.42819,6.62662 -0.24988,9.29463 3.36064,4.11618 9.82021,4.9247 14.29738,6.52459 1.579,0.5644 1.1293,2.30577 0.55669,2.58128 -5.5528,2.67368 -12.24772,-2.16317 -12.24772,-2.16317 0,0 -2.63518,4.24556 -4.0426,6.63873 3.17941,2.22321 8.9587,3.33692 8.9587,3.33692 l 0.16246,6.72694 8.39631,-0.2028 -0.18971,-6.80106 c 0,0 5.17206,-1.24537 6.92441,-4.6994 2.54956,-5.02638 0.0837,-9.14808 -0.23549,-9.7504 -2.19713,-4.14598 -13.64951,-5.47905 -14.83107,-6.59659 -0.47909,-0.45311 -0.19232,-1.76677 0.36305,-1.92917 0.49519,-0.14484 5.0348,-1.72912 11.07357,2.10368 1.32197,-2.22014 3.85999,-6.53632 3.85999,-6.53632 0,0 -3.12904,-2.54128 -7.8665,-3.122628 -0.0439,-1.813694 -0.17091,-7.076299 -0.17091,-7.076299 l -8.39594,0.202796 c 0,-4.05e-4 0.12429,5.171928 0.20294,7.256991 z"
           id="path5934" />
        <path
           id="path5936"
           d="m -465.52133,119.17844 c -2.04854,1.51353 -4.2768,5.27456 -4.33905,8.43616 -0.0795,4.04111 1.48762,8.45345 5.40709,9.93173 6.04688,2.28074 13.33653,-0.80911 19.02313,-1.857 2.00566,-0.36941 2.59479,1.7371 2.16039,2.37629 -4.21133,6.20048 -14.20599,5.19551 -14.20599,5.19551 0,0 -0.18267,6.07449 -0.20358,9.45102 4.70143,0.39961 11.46149,-1.95415 11.46149,-1.95415 l 4.27457,6.97863 8.71044,-5.3354 -4.34846,-7.03998 c 0,0 4.68205,-4.46542 4.41872,-9.16856 -0.38375,-6.8438 -5.49255,-9.67618 -6.19582,-10.11519 -4.84089,-3.02186 -17.70367,2.56186 -19.62859,2.10683 -0.78047,-0.18451 -1.28013,-1.74159 -0.79486,-2.25124 0.43266,-0.45447 4.24253,-4.89067 12.93432,-4.54184 0.0366,-3.14236 0.0739,-9.23188 0.0739,-9.23188 0,0 -4.84247,-0.76499 -10.18162,1.51333 -1.15259,-1.88147 -4.49657,-7.34103 -4.49657,-7.34103 l -8.71006,5.33515 c -2.4e-4,-4.4e-4 3.28582,5.36582 4.64052,7.51162 z"
           inkscape:connector-curvature="0"
           sodipodi:nodetypes="csscccccccccssscccccc"
           style="fill:#000000" />
        <path
           style="fill:#23001E"
           sodipodi:nodetypes="csscccccccccssscccccc"
           inkscape:connector-curvature="0"
           d="m -498.9834,159.0953 c -1.84597,0.57986 -4.37742,2.72938 -5.20485,4.98463 -1.05756,2.88264 -1.02442,6.43956 1.42457,8.47161 3.77822,3.13505 9.7786,2.72063 14.12215,3.37587 1.53192,0.23123 1.43352,1.88997 0.96329,2.2415 -4.55963,3.41058 -11.48899,0.21443 -11.48899,0.21443 0,0 -1.63506,4.31747 -2.48601,6.73732 3.27763,1.45093 8.71543,1.43406 8.71543,1.43406 l 1.3423,6.07031 7.57672,-1.67544 -1.38017,-6.13267 c 0,0 4.46816,-2.04792 5.4434,-5.49091 1.41871,-5.01022 -1.54922,-8.30923 -1.94563,-8.79864 -2.7286,-3.36876 -13.34901,-2.54297 -14.61884,-3.34633 -0.51485,-0.32574 -0.48822,-1.56773 -0.0135,-1.81362 0.42324,-0.21929 4.25776,-2.46216 10.41385,-0.0598 0.80424,-2.24778 2.33861,-6.61205 2.33861,-6.61205 0,0 -3.28847,-1.74826 -7.68709,-1.43379 -0.362,-1.63662 -1.41202,-6.38555 -1.41202,-6.38555 l -7.57639,1.67535 c -6e-5,-3.7e-4 1.03146,4.66721 1.47317,6.54371 z"
           id="path5938" />
        <path
           id="path5940"
           d="m -454.28058,65.422262 c -0.96603,0.06803 -2.44801,0.820683 -3.11264,1.822617 -0.8495,1.28067 -1.24625,3.016227 -0.28982,4.289824 1.47553,1.964898 4.44496,2.459663 6.48358,3.282873 0.71899,0.290403 0.47854,1.086549 0.20879,1.203109 -2.61578,1.131178 -5.61838,-1.229253 -5.61838,-1.229253 0,0 -1.29721,1.912189 -1.9924,2.99153 1.42731,1.086865 4.0767,1.709875 4.0767,1.709875 l -0.0511,3.111185 3.88326,0.06381 0.0399,-3.145942 c 0,0 2.41308,-0.478376 3.28754,-2.041411 1.2723,-2.274574 0.21029,-4.225238 0.0741,-4.509526 -0.93739,-1.956841 -6.20386,-2.787624 -6.72883,-3.326148 -0.21285,-0.218352 -0.0557,-0.819932 0.20395,-0.88454 0.23151,-0.05763 2.35873,-0.704475 5.077,1.179733 0.65247,-1.00099 1.90609,-2.947652 1.90609,-2.947652 0,0 -1.39807,-1.23288 -3.57607,-1.590373 0.0137,-0.838821 0.0538,-3.272755 0.0538,-3.272755 l -3.88309,-0.06382 c 1e-5,-1.87e-4 -0.0396,2.391995 -0.0424,3.356855 z"
           inkscape:connector-curvature="0"
           sodipodi:nodetypes="csscccccccccssscccccc"
           style="fill:#000000" />
        <path
           style="fill:#23001E"
           sodipodi:nodetypes="csscccccccccssscccccc"
           inkscape:connector-curvature="0"
           d="m -495.22893,91.084499 c -1.15652,-0.240445 -3.14569,0.151679 -4.25805,1.107423 -1.4218,1.22164 -2.46297,3.12736 -1.76256,4.939477 1.08055,2.795708 4.40214,4.361041 6.5222,6.003291 0.7477,0.57928 0.20149,1.4341 -0.15381,1.48147 -3.44557,0.46054 -6.18751,-3.30579 -6.18751,-3.30579 0,0 -2.15672,1.8145 -3.33064,2.85098 1.31507,1.74905 4.21846,3.35881 4.21846,3.35881 l -1.09153,3.63509 4.53717,1.36243 1.08991,-3.6796 c 0,0 2.9912,0.23855 4.53591,-1.30625 2.24765,-2.24816 1.64779,-4.89005 1.58218,-5.26891 -0.45153,-2.607822 -6.35808,-5.329199 -6.79575,-6.135401 -0.17745,-0.326884 0.20648,-0.980938 0.53269,-0.970687 0.29086,0.0091 3.00236,-0.04488 5.56843,3.068167 1.0978,-0.958667 3.21478,-2.828084 3.21478,-2.828084 0,0 -1.23233,-1.910753 -3.67042,-3.052539 0.2942,-0.9801 1.14828,-3.823855 1.14828,-3.823855 l -4.53697,-1.362407 c 7e-5,-2.16e-4 -0.83959,2.794693 -1.16278,3.926355 z"
           id="path5942" />
      </g>
    </g>
  </g>
</svg>
